<?xml version="1.0" encoding="utf-8"?><svg width="250" height="238" viewBox="0 0 250 238" xmlns="http://www.w3.org/2000/svg" xmlns:xlink="http://www.w3.org/1999/xlink"><svg width="26" height="26" viewBox="-1 -1 26 26" id="account" x="224" xmlns="http://www.w3.org/2000/svg"><g data-name="Group 2201"><g data-name="Group 2198" fill="none" transform="translate(-1178 -12)"><path data-name="Rectangle 174" d="M1178 12h24v24h-24z"/><circle data-name="Ellipse 81" cx="4.746" cy="4.746" transform="translate(1185.199 16.001)" stroke="#000" stroke-miterlimit="10" stroke-width="2" r="4.746"/><path data-name="Path 556" d="M1182.8 32.001a6.767 6.767 0 017-6.508 6.768 6.768 0 017 6.508" stroke="#000" stroke-miterlimit="10" stroke-width="2"/></g></g></svg><svg width="29" height="29" viewBox="-1 -1 29 29" id="alert" x="85.1" y="181.82" xmlns="http://www.w3.org/2000/svg"><g transform="translate(-329.5 -792.5)"><circle cx="12.5" cy="12.5" r="12.5" transform="translate(330.5 793.5)" fill="none" stroke="#e42322" stroke-width="2"/><path d="M343.2 810.012a1.2 1.2 0 11-1.2 1.2 1.211 1.211 0 011.2-1.2m.926-1.8h-1.853v-9.214h1.853z" fill="#e42322"/></g></svg><svg width="11.41" height="11.41" viewBox="-1 -1 11.41 11.41" id="arrow-down" x="58" y="132" xmlns="http://www.w3.org/2000/svg"><path d="M8.707 4l-4 4-4-4m4-4v8" fill="none" stroke="#222" stroke-miterlimit="10" stroke-width="2"/></svg><svg width="8.12" height="11.41" viewBox="-1 -1 8.12 11.41" id="arrow-left" x="69.41" y="132" xmlns="http://www.w3.org/2000/svg"><path data-name="Path 699" d="M5.414.707l-4 4 4 4" fill="none" stroke="#222" stroke-miterlimit="10" stroke-width="2"/></svg><svg width="20.1" height="29.71" viewBox="-1 -1 20.1 29.71" id="arrow-left-big" x="44.9" y="181.82" xmlns="http://www.w3.org/2000/svg"><path data-name="Path 2745" d="M15.975 25.586L4.243 13.854 15.975 2.122" fill="none" stroke="#000" stroke-miterlimit="10" stroke-width="6"/></svg><svg width="8.12" height="11.41" viewBox="-1 -1 8.12 11.41" id="arrow-right" x="77.53" y="132" xmlns="http://www.w3.org/2000/svg"><path data-name="Path 699" d="M.707.707l4 4-4 4" fill="none" stroke="#222" stroke-miterlimit="10" stroke-width="2"/></svg><svg width="20.1" height="29.71" viewBox="-1 -1 20.1 29.71" id="arrow-right-big" x="65" y="181.82" xmlns="http://www.w3.org/2000/svg"><path data-name="Path 2745" d="M2.121 2.121l11.732 11.732L2.121 25.585" fill="none" stroke="#000" stroke-miterlimit="10" stroke-width="6"/></svg><svg width="26" height="26" viewBox="-1 -1 26 26" id="basket" x="224" y="26" xmlns="http://www.w3.org/2000/svg"><g data-name="Group 2200"><g data-name="Group 2197" fill="none"><path data-name="Rectangle 180" d="M0 0h24v24H0z"/><g data-name="Group 112" stroke="#000" stroke-miterlimit="10" stroke-width="2"><path d="M7.45 9.667a4.667 4.667 0 019.333 0"/><path data-name="Path 647" d="M16.667 19H7.333L5 9.9h14z"/></g></g></g></svg><svg width="24" height="22.33" viewBox="-1 -1 24 22.33" id="booklet" x="97.65" y="148" xmlns="http://www.w3.org/2000/svg"><g fill="none" stroke="#222" stroke-miterlimit="10" stroke-width="2"><path d="M11 3.533v16.8"/><path d="M16 1c-2.733 0-5 1.067-5 2.533C11 2.067 8.733 1 6 1S1 2.067 1 3.533v16.8c0-1.533 2.267-2.667 5-2.667s5 1.133 5 2.667c0-1.533 2.267-2.667 5-2.667s5 1.133 5 2.667v-16.8C21 2.067 18.733 1 16 1z" stroke-linecap="square"/></g></svg><svg width="26" height="26" viewBox="-1 -1 26 26" id="calendar" x="224" y="52" xmlns="http://www.w3.org/2000/svg"><path fill="#FFF" d="M0 0h24v24H0z"/><path d="M17 4V2h-2v2H9V2H7v2H3v17h18V4h-4zm2 15H5V6h2v2h2V6h6v2h2V6h2v13z"/><path d="M7 10.4h2v2H7zm4 0h2v2h-2zm4 0h2v2h-2zm-8 4h2v2H7zm4 0h2v2h-2zm4 0h2v2h-2z"/></svg><svg width="26" height="26" viewBox="-1 -1 26 26" id="calendar-add" x="224" y="78" xmlns="http://www.w3.org/2000/svg"><path fill="#fff" d="M0 0h24v24H0z"/><g fill="none" stroke="#000" stroke-width="2"><path d="M4 5h16v15H4z"/><path d="M8.071 12.516l3.077 3.125 4.923-5M8 8V2m8 6V2"/></g></svg><svg width="15.41" height="10.12" viewBox="-1 -1 15.41 10.12" id="chevron-down" x="190" y="168" xmlns="http://www.w3.org/2000/svg"><path d="M12.707.707l-6 6-6-6" fill="none" stroke="#222" stroke-width="2"/></svg><svg width="8.12" height="11.41" viewBox="-1 -1 8.12 11.41" id="chevron-right-white" x="85.65" y="132" xmlns="http://www.w3.org/2000/svg"><path d="M.707.707l4 4-4 4" fill="none" stroke="#fff" stroke-miterlimit="10" stroke-width="2"/></svg><svg width="15.41" height="10.12" viewBox="-1 -1 15.41 10.12" id="chevron-up" x="205.41" y="168" xmlns="http://www.w3.org/2000/svg"><path d="M12.707 7.414l-6-6-6 6" fill="none" stroke="#222" stroke-width="2"/></svg><svg width="18.41" height="18.41" viewBox="-1 -1 18.41 18.41" id="close-gray" x="198.02" y="211.95" xmlns="http://www.w3.org/2000/svg"><g data-name="Group 4842" fill="none" stroke="#c9c9c9" stroke-width="2"><path data-name="Line 74" d="M.707.707l15 15"/><path data-name="Line 75" d="M15.707.707l-15 15"/></g></svg><svg width="27.41" height="27.41" viewBox="-1 -1 27.41 27.41" id="close-white" x="190.58" y="181.82" xmlns="http://www.w3.org/2000/svg"><path d="M.707.707l24 24m0-24l-24 24" fill="none" stroke="#fff" stroke-width="2"/></svg><svg width="34" height="34" viewBox="-1 -1 34 34" id="email-circle-small" x="190" xmlns="http://www.w3.org/2000/svg"><circle data-name="Ellipse 12" cx="16" cy="16" r="16"/><path data-name="Path 3002" d="M16 16.095l9-6.086V10H7v.009z" fill="#fff" fill-rule="evenodd"/><path data-name="Path 3003" d="M16 17.905l-9-6.086V22h18V11.819z" fill="#fff" fill-rule="evenodd"/></svg><svg width="14.97" height="30.13" viewBox="-1 -1 14.97 30.13" id="facebook" y="181.82" xmlns="http://www.w3.org/2000/svg"><path d="M12.443 14.036H8.597v14.089H2.771V14.036H0V9.084h2.771v-3.2c0-2.291 1.088-5.88 5.88-5.88l4.315.019v4.806H9.834a1.186 1.186 0 00-1.236 1.349v2.915h4.356zm0 0" data-name="Group 4775"/></svg><svg width="42" height="42" viewBox="-1 -1 42 42" id="facebook-circle" x="58" y="90" xmlns="http://www.w3.org/2000/svg"><g data-name="Group 249" transform="translate(-159 -4124)"><circle data-name="Ellipse 12" cx="20" cy="20" r="20" transform="translate(159 4124)"/><path d="M184.282 4143.89h-3.354v12.286h-5.081v-12.286h-2.416v-4.319h2.416v-2.794c0-2 .949-5.127 5.127-5.127l3.763.016v4.191h-2.73a1.034 1.034 0 00-1.078 1.177v2.542h3.8zm0 0" fill="#fff"/></g></svg><svg width="34" height="34" viewBox="-1 -1 34 34" id="facebook-circle-small" x="190" y="34" xmlns="http://www.w3.org/2000/svg"><circle data-name="Ellipse 12" cx="16" cy="16" r="16"/><path d="M20.226 15.913h-2.683v9.828h-4.065v-9.828h-1.933v-3.455h1.933v-2.237a3.812 3.812 0 014.1-4.1l3.01.013v3.353h-2.183a.827.827 0 00-.863.941v2.034h3.039zm0 0" fill="#fff"/></svg><svg width="26" height="26" viewBox="-1 -1 26 26" id="filter" x="224" y="104" xmlns="http://www.w3.org/2000/svg"><path fill="#FFF" d="M0 0h24v24H0z"/><path d="M9 4.5v-2H7v2H3v2h4v2h2v-2h12v-2zm0 11H7v2H3v2h4v2h2v-2h12v-2H9zM17 9h-2v2H3v2h12v2h2v-2h4v-2h-4z"/></svg><svg width="26" height="26" viewBox="-1 -1 26 26" id="information" x="224" y="130" xmlns="http://www.w3.org/2000/svg"><g data-name="Group 4996"><g data-name="Ellipse 94" fill="none" stroke="#000" stroke-width="2"><circle cx="12" cy="12" r="12" stroke="none"/><circle cx="12" cy="12" r="11"/></g><path d="M13.788 18.206V9.417H11v8.789zm0-10.081V6H11v2.125z"/></g></svg><svg width="29.93" height="29.93" viewBox="-1 -1 29.93 29.93" id="instagram" x="14.97" y="181.82" xmlns="http://www.w3.org/2000/svg"><path d="M27.849 8.208a10.251 10.251 0 00-.649-3.39A7.147 7.147 0 0023.115.733a10.252 10.252 0 00-3.39-.649C18.235.016 17.76 0 13.967 0S9.698.016 8.209.084a10.259 10.259 0 00-3.39.649A7.143 7.143 0 00.734 4.818a10.25 10.25 0 00-.65 3.39c-.068 1.49-.083 1.966-.083 5.759s.016 4.269.083 5.758a10.258 10.258 0 00.65 3.39A7.14 7.14 0 004.819 27.2a10.243 10.243 0 003.39.649c1.49.068 1.965.084 5.758.084s4.269-.016 5.758-.084a10.236 10.236 0 003.39-.649 7.143 7.143 0 004.085-4.085 10.259 10.259 0 00.649-3.39c.068-1.49.084-1.966.084-5.758s-.015-4.269-.084-5.759zm-2.514 11.4a7.73 7.73 0 01-.481 2.594 4.625 4.625 0 01-2.651 2.65 7.734 7.734 0 01-2.594.481c-1.472.067-1.914.081-5.644.081s-4.171-.014-5.644-.081a7.738 7.738 0 01-2.594-.481 4.626 4.626 0 01-2.65-2.65 7.742 7.742 0 01-.481-2.594c-.067-1.473-.081-1.915-.081-5.644s.014-4.171.081-5.644a7.733 7.733 0 01.481-2.593 4.624 4.624 0 012.65-2.651 7.726 7.726 0 012.594-.481c1.473-.068 1.915-.082 5.644-.082s4.171.014 5.644.082a7.722 7.722 0 012.594.481 4.623 4.623 0 012.651 2.651 7.721 7.721 0 01.481 2.593c.068 1.473.082 1.915.082 5.644s-.011 4.17-.082 5.647zM13.966 6.795a7.172 7.172 0 107.172 7.172 7.172 7.172 0 00-7.172-7.172zm0 11.828a4.656 4.656 0 114.656-4.656 4.656 4.656 0 01-4.656 4.656zm9.132-12.112a1.676 1.676 0 11-1.676-1.676 1.676 1.676 0 011.676 1.676z"/></svg><svg width="42" height="42" viewBox="-1 -1 42 42" id="instagram-circle" x="100" y="90" xmlns="http://www.w3.org/2000/svg"><g data-name="Group 251" transform="translate(-327.001 -4124)"><circle data-name="Ellipse 14" cx="20" cy="20" r="20" transform="translate(327.001 4124)"/><path d="M358.977 4139.267a8.789 8.789 0 00-.556-2.906 6.127 6.127 0 00-3.5-3.5 8.789 8.789 0 00-2.907-.556c-1.277-.058-1.685-.072-4.937-.072s-3.66.014-4.937.072a8.8 8.8 0 00-2.907.556 6.124 6.124 0 00-3.5 3.5 8.787 8.787 0 00-.557 2.906c-.058 1.278-.072 1.685-.072 4.937s.014 3.66.072 4.937a8.794 8.794 0 00.557 2.907 6.121 6.121 0 003.5 3.5 8.781 8.781 0 002.907.556c1.277.058 1.685.072 4.937.072s3.66-.014 4.937-.072a8.775 8.775 0 002.907-.556 6.124 6.124 0 003.5-3.5 8.8 8.8 0 00.556-2.907c.058-1.277.072-1.685.072-4.937s-.013-3.656-.072-4.937zm-2.155 9.776a6.627 6.627 0 01-.415 2.224 3.965 3.965 0 01-2.273 2.272 6.631 6.631 0 01-2.224.413c-1.262.057-1.641.069-4.839.069s-3.576-.012-4.839-.069a6.634 6.634 0 01-2.224-.413 3.966 3.966 0 01-2.272-2.272 6.637 6.637 0 01-.413-2.224c-.057-1.263-.069-1.642-.069-4.839s.012-3.576.069-4.839a6.63 6.63 0 01.413-2.223 3.965 3.965 0 012.272-2.273 6.624 6.624 0 012.224-.412c1.263-.058 1.642-.07 4.839-.07s3.576.012 4.839.07a6.621 6.621 0 012.224.412 3.964 3.964 0 012.273 2.273 6.62 6.62 0 01.412 2.223c.058 1.263.07 1.642.07 4.839s-.009 3.579-.067 4.842zm-9.747-10.988a6.149 6.149 0 106.149 6.149 6.149 6.149 0 00-6.149-6.146zm0 10.141a3.992 3.992 0 113.991-3.991 3.992 3.992 0 01-3.991 3.994zm7.832-10.381a1.437 1.437 0 11-1.437-1.437 1.437 1.437 0 011.437 1.437z" fill="#fff"/></g></svg><svg width="26" height="26" viewBox="-1 -1 26 26" id="instagram-white" x="224" y="156" xmlns="http://www.w3.org/2000/svg"><path fill="#FFF" d="M23.9 7.1c0-1-.2-2-.6-2.9-.6-1.6-1.9-2.9-3.5-3.5-.9-.3-1.9-.5-2.9-.6C15.7 0 15.3 0 12 0S8.3 0 7.1.1c-1 0-2 .2-2.9.6-1.7.6-2.9 1.8-3.6 3.4-.3 1-.5 2-.5 3C0 8.3 0 8.7 0 12s0 3.7.1 4.9c0 1 .2 2 .6 2.9.6 1.6 1.9 2.9 3.5 3.5.9.3 1.9.5 2.9.6 1.2.1 1.6.1 4.9.1s3.7 0 4.9-.1c1 0 2-.2 2.9-.6 1.6-.6 2.9-1.9 3.5-3.5.3-.9.5-1.9.6-2.9.1-1.2.1-1.6.1-4.9s0-3.7-.1-4.9zm-2.1 9.7c0 .8-.1 1.5-.4 2.2-.4 1-1.2 1.9-2.3 2.3-.7.3-1.5.4-2.2.4-1.3.1-1.6.1-4.8.1s-3.6 0-4.8-.1c-.8 0-1.5-.1-2.2-.4-1-.4-1.9-1.2-2.3-2.3-.3-.7-.4-1.5-.4-2.2-.1-1.3-.1-1.6-.1-4.8s0-3.6.1-4.8c0-.8.1-1.5.4-2.2.2-1.1 1.1-2 2.1-2.4.7-.3 1.5-.4 2.2-.4H12c3.2 0 3.6 0 4.8.1.8 0 1.5.1 2.2.4 1 .4 1.9 1.2 2.3 2.3.3.7.4 1.5.4 2.2.1 1.3.1 1.6.1 4.8v4.8zM12 5.8c-3.4 0-6.2 2.8-6.2 6.2s2.8 6.2 6.2 6.2c3.4 0 6.2-2.8 6.2-6.2 0-3.4-2.8-6.2-6.2-6.2zM12 16c-2.2 0-4-1.8-4-4s1.8-4 4-4 4 1.8 4 4-1.8 4-4 4zm7.8-10.4c0 .8-.6 1.4-1.4 1.4-.8 0-1.4-.6-1.4-1.4 0-.8.6-1.4 1.4-1.4.8 0 1.4.6 1.4 1.4z"/></svg><svg width="31.18" height="31.18" viewBox="-1 -1 31.18 31.18" id="issuu" x="36" y="148" xmlns="http://www.w3.org/2000/svg"><path d="M14.589 0H1.213A1.216 1.216 0 000 1.213v13.376A14.589 14.589 0 1014.589 0zm.01 24.612a10.129 10.129 0 1110.225-10.037 10.13 10.13 0 01-10.225 10.037zm.166-17.5a7.421 7.421 0 107.35 7.491 7.421 7.421 0 00-7.35-7.488zm-.106 11.179a3.758 3.758 0 113.792-3.722 3.759 3.759 0 01-3.792 3.725z" data-name="Group 4773"/></svg><svg width="32" height="32" viewBox="-1 -1 32 32" id="magnifying-glass-white" x="190" y="136" xmlns="http://www.w3.org/2000/svg"><path fill="#FFF" d="M29.875 27.35L19.076 16.549a10.444 10.444 0 001.916-6.035C20.992 4.713 16.29.011 10.49.011 4.69.011-.012 4.713-.012 10.514c0 5.8 4.703 10.501 10.502 10.501a10.47 10.47 0 005.956-1.854l10.81 10.81 2.619-2.621zM10.5 17.844a7.344 7.344 0 110-14.688 7.344 7.344 0 010 14.688z"/></svg><svg width="26" height="26" viewBox="-1 -1 26 26" id="merken" x="224" y="182" xmlns="http://www.w3.org/2000/svg"><g data-name="Group 2202"><g data-name="Group 2192"><path data-name="Rectangle 180" fill="#fff" d="M0 0h24v24H0z"/><g data-name="Group 2178" fill="none" stroke="#000" stroke-width="2"><path data-name="Path 2012" d="M5 9.729l5.528-.792L13 4l2.472 4.938L21 9.73l-4 3.843.944 5.427L13 16.438"/><path data-name="Line 25" d="M3 14h8"/><path data-name="Line 26" d="M3 17h8"/><path data-name="Line 27" d="M3 20h8"/></g></g></g></svg><svg data-name="Icon: Merken" width="26" height="26" viewBox="-1 -1 26 26" id="merken-star" y="211.95" xmlns="http://www.w3.org/2000/svg"><path data-name="Rectangle 180" fill="#fff" d="M0 0h24v24H0z"/><path data-name="Pfad 2521" d="M12.5 4l2.318 4.938L20 9.73l-3.75 3.843.885 5.427-4.635-2.562L7.864 19l.885-5.427-3.75-3.843 5.182-.792z" fill="none" stroke="#000" stroke-width="2.038"/></svg><svg width="21.02" height="21.67" viewBox="-1 -1 21.02 21.67" id="merken-star-blue" x="177" y="211.95" xmlns="http://www.w3.org/2000/svg"><g data-name="Gruppe 4719"><path data-name="Path 2569" d="M5.543 7.275l3.885 4.805L15.19 1.354" fill="none" stroke="#040405" stroke-linecap="square" stroke-miterlimit="10" stroke-width="2"/><g data-name="Gruppe 4718" fill="#39b9ef"><path data-name="Pfad 2644" d="M9.091 8.482l2.184-4.065L9.509.655 7.03 5.933z"/><path data-name="Pfad 2645" d="M19.017 7.918l-4.7-.718-4.554 8.478-6.658-8.235-3.108.475 4.754 4.872-1.122 6.88 5.877-3.248 5.876 3.248-1.122-6.88z"/></g></g></svg><svg width="36" height="33.82" viewBox="-1 -1 36 33.82" id="newsletter" y="148" xmlns="http://www.w3.org/2000/svg"><g data-name="Group 2269"><path data-name="Path 1789" d="M1 14.818v16h32v-16L17.489 22.2z" fill="none" stroke="#000" stroke-width="2"/><path data-name="Path 1790" d="M3 16V1h28v15" fill="none" stroke="#000" stroke-width="2"/><g data-name="Group 2270"><path data-name="Path 2074" d="M20.209 16.02v-.737a2.332 2.332 0 01-1.92.833 2.7 2.7 0 01-2.018-.8c-.656-.7-.752-1.552-.752-2.993 0-1.425.1-2.257.736-2.961a2.687 2.687 0 012.017-.817 2.374 2.374 0 011.889.785v-.721A1.959 1.959 0 0018 6.416h-1.984a1.96 1.96 0 00-2.162 2.192v4.626a1.733 1.733 0 00.7 1.585l-1.441 1.441a3.3 3.3 0 01-1.264-2.913V8.561a4.013 4.013 0 01.992-3.026 3.968 3.968 0 013.009-.976h2.3a3.991 3.991 0 013.009.976 3.98 3.98 0 01.977 3.026v7.506zm-1.376-5.747c-1.025 0-1.313.785-1.313 2.049s.288 2.065 1.313 2.065 1.328-.8 1.328-2.065-.304-2.049-1.328-2.049z"/></g></g></svg><svg width="90" height="90" viewBox="-1 -1 90 90" id="newsletter-black" xmlns="http://www.w3.org/2000/svg"><g data-name="Group 4814" transform="translate(-827 -60)"><circle data-name="Ellipse 198" cx="44" cy="44" r="44" transform="translate(827 60)"/><g data-name="Group 4764" fill="none" stroke="#fff" stroke-miterlimit="10" stroke-width="3"><path data-name="Path 2757" d="M859.055 98.109L853 101.621v20.706h36.328v-20.706l-6.055-3.512"/><path data-name="Path 2758" d="M859.055 105.011V86h24.218v18.89"/><path data-name="Line 70" stroke-linejoin="round" d="M853 101.621l36.328 20.707"/><path data-name="Line 71" stroke-linejoin="round" d="M889.327 101.621l-18.648 10.051"/><path data-name="Line 72" stroke-linejoin="round" d="M864.861 92.861h13"/><path data-name="Line 73" stroke-linejoin="round" d="M864.861 98.861h13"/></g></g></svg><svg width="28.24" height="28.51" viewBox="-1 -1 28.24 28.51" id="no-ticket" x="114.1" y="181.82" xmlns="http://www.w3.org/2000/svg"><g data-name="Group 4833" fill="#222"><path data-name="Rectangle 3875" d="M0 23.74L23.74 0l2.5 2.5L2.5 26.24z"/><g data-name="Group 4832"><path data-name="Path 2865" d="M6.469 14.821V2.514h1.186a5.933 5.933 0 005.647 4.782 5.858 5.858 0 00.74-.048L20.777.514h-3.356l-.029.971a3.924 3.924 0 01-7.845 0L9.518.514H4.469v16.307z"/><path data-name="Path 2866" d="M20.469 10.72v13.794h-.876a5.882 5.882 0 00-9.311-3.607l-1.253 1.254a5.8 5.8 0 00-1.066 2.353H6.676l-2 2h5.15l.028-.972a3.931 3.931 0 013.922-3.813h.113a3.927 3.927 0 013.812 3.812l.028.972h4.74V8.72z"/></g><path data-name="Path 2867" d="M15.209 16.113h2.76v-2h-.76z"/></g></svg><svg width="26" height="26" viewBox="-1 -1 26 26" id="play" x="26" y="211.95" xmlns="http://www.w3.org/2000/svg"><path data-name="Rectangle 180" fill="none" d="M0 0h24v24H0z"/><g data-name="Gruppe 5316"><g data-name="Ellipse 227" transform="translate(4 4)" fill="none" stroke="#ff7800" stroke-width="2"><circle cx="8" cy="8" r="8" stroke="none"/><circle cx="8" cy="8" r="7"/></g><path data-name="Polygon 2" d="M15.417 12.087l-4.757 2.854V9.233z" fill="#ff7800"/></g></svg><svg width="26" height="32" viewBox="-1 -1 26 32" id="play-no-border" x="90" y="58" xmlns="http://www.w3.org/2000/svg"><path d="M0 0l24 15L0 30z" fill="#fff"/></svg><svg width="18.41" height="18.41" viewBox="-1 -1 18.41 18.41" id="reset" x="216.43" y="211.95" xmlns="http://www.w3.org/2000/svg"><g data-name="Group 5143" fill="none" stroke="#000" stroke-width="2"><path data-name="Line 74" d="M.707.707l15 15"/><path data-name="Line 75" d="M15.707.707l-15 15"/></g></svg><svg width="26" height="26" viewBox="-1 -1 26 26" id="search" x="52" y="211.95" xmlns="http://www.w3.org/2000/svg"><g data-name="Group 1699" fill="none"><path data-name="Rectangle 181" d="M0 0h24v24H0z"/><g data-name="Group 116" transform="translate(5.57 5.599)" stroke="#000" stroke-miterlimit="10" stroke-width="2"><circle cx="4.715" cy="4.715" r="4.715"/><path data-name="Line 11" d="M13.716 13.145L8.001 7.43"/></g></g></svg><svg width="38.1" height="37" viewBox="-1 -1 38.1 37" id="search-big" x="148" y="84" xmlns="http://www.w3.org/2000/svg"><g fill="none" stroke="#000" stroke-width="2" stroke-miterlimit="10"><circle cx="12.8" cy="12.8" r="11.8"/><path d="M35.4 34.3L21.1 19.9"/></g></svg><svg width="26" height="26" viewBox="-1 -1 26 26" id="share" x="78" y="211.95" xmlns="http://www.w3.org/2000/svg"><path fill="#fff" d="M0 0h24v24H0z"/><path d="M13.333 19L11 12 4 9.667 18 5z" fill="none" stroke="#000" stroke-width="2"/></svg><svg width="11.68" height="23" viewBox="-1 -1 11.68 23" id="share-facebook" x="124" y="211.95" xmlns="http://www.w3.org/2000/svg"><path d="M9.292 10.481H6.419V21h-4.35V10.481H0v-3.7h2.069V4.39A4.08 4.08 0 016.459 0l3.222.014V3.6H7.343a.886.886 0 00-.923 1.007v2.177h3.252zm0 0"/></svg><svg width="21" height="17" viewBox="-1 -1 21 17" id="share-mail" x="144.32" y="148" xmlns="http://www.w3.org/2000/svg"><g fill="none" stroke="#111" stroke-linecap="square" stroke-miterlimit="10"><path d="M1.652 1.829l7.826 6.357 7.826-6.357"/><path stroke-width="2" d="M1 1h17v13H1z"/></g></svg><svg width="22.67" height="18.8" viewBox="-1 -1 22.67 18.8" id="share-twitter" x="121.65" y="148" xmlns="http://www.w3.org/2000/svg"><path d="M20.666 1.988a8.478 8.478 0 01-2.435.667A4.266 4.266 0 0020.097.306a8.527 8.527 0 01-2.693 1.028 4.245 4.245 0 00-7.226 3.872A12.036 12.036 0 011.439.775a4.246 4.246 0 001.315 5.662 4.222 4.222 0 01-1.921-.531v.054a4.242 4.242 0 003.4 4.156 4.228 4.228 0 01-1.915.074 4.247 4.247 0 003.962 2.945 8.506 8.506 0 01-5.267 1.814 8.407 8.407 0 01-1.011-.059A12.058 12.058 0 0018.565 4.73c0-.184 0-.366-.012-.548a8.6 8.6 0 002.115-2.194zm0 0"/></svg><svg width="22" height="22.09" viewBox="-1 -1 22 22.09" id="share-whatsapp" x="135.68" y="211.95" xmlns="http://www.w3.org/2000/svg"><path d="M0 20.09l1.413-5.159a9.959 9.959 0 118.629 4.986 9.954 9.954 0 01-4.759-1.212zm5.528-3.19l.3.179a8.266 8.266 0 004.213 1.153 8.276 8.276 0 10-7.013-3.873l.2.313-.836 3.053z"/><path d="M7.553 5.793c-.2-.485-.407-.419-.56-.427s-.311-.009-.477-.009a.914.914 0 00-.664.311 2.789 2.789 0 00-.871 2.075 4.838 4.838 0 001.016 2.573 11.09 11.09 0 004.251 3.756 14.328 14.328 0 001.418.524 3.413 3.413 0 001.567.1 2.563 2.563 0 001.679-1.183 2.079 2.079 0 00.145-1.183c-.062-.1-.228-.166-.477-.291s-1.472-.726-1.7-.809-.394-.125-.56.125-.643.809-.788.975-.29.187-.539.062a6.8 6.8 0 01-2-1.235 7.5 7.5 0 01-1.384-1.723c-.145-.249-.015-.384.109-.508s.249-.291.373-.436a1.7 1.7 0 00.249-.415.458.458 0 00-.021-.436c-.061-.124-.559-1.348-.766-1.846z" fill-rule="evenodd"/></svg><svg width="31.58" height="31.58" viewBox="-1 -1 31.58 31.58" id="spotify" x="116" y="58" xmlns="http://www.w3.org/2000/svg"><g data-name="Group 3368"><path data-name="Path 1695" d="M14.789 0a14.789 14.789 0 1014.788 14.789A14.789 14.789 0 0014.789 0zm6.782 21.331a.921.921 0 01-1.267.307c-3.473-2.123-7.844-2.6-12.992-1.426a.923.923 0 11-.41-1.8c5.633-1.288 10.466-.734 14.364 1.648a.922.922 0 01.305 1.271zm1.81-4.027a1.154 1.154 0 01-1.586.38A19.411 19.411 0 007.058 15.96a1.153 1.153 0 11-.67-2.206 21.574 21.574 0 0116.613 1.969 1.153 1.153 0 01.379 1.581zm.156-4.193c-4.767-2.831-12.63-3.091-17.181-1.71a1.383 1.383 0 11-.8-2.647c5.224-1.586 13.908-1.279 19.4 1.978a1.383 1.383 0 01-1.412 2.379z"/></g></svg><svg width="20" height="28" viewBox="-1 -1 20 28" id="ticket" x="170.58" y="181.82" xmlns="http://www.w3.org/2000/svg"><g data-name="Group 2383" fill="none" stroke="#222" stroke-miterlimit="10" stroke-width="2"><path data-name="Path 820" d="M13.923 1a4.925 4.925 0 01-9.846 0H1v24h3.385a4.925 4.925 0 019.846 0H17V1z"/><path data-name="Line 13" d="M4.5 14.6h9"/><path data-name="Line 14" d="M5.301 14.6h6.6"/><path data-name="Line 15" d="M4.5 14.6h9"/><path data-name="Line 16" d="M4.5 14.6h9"/></g></svg><svg data-name="Komponente 42 – 30" width="58" height="58" viewBox="-1 -1 58 58" id="ticket-available" x="90" xmlns="http://www.w3.org/2000/svg"><circle data-name="Ellipse 92" cx="28" cy="28" r="28" fill="#41cbff"/><g data-name="Gruppe 1738" fill="none" stroke="#222" stroke-miterlimit="10" stroke-width="2"><path data-name="Pfad 820" d="M32.923 16a4.925 4.925 0 01-9.846 0H20v24h3.385a4.925 4.925 0 019.846 0H36V16z"/><g data-name="Gruppe 1807"><path data-name="Linie 13" d="M23.5 29.6h9"/><path data-name="Linie 14" d="M24.3 29.6h6.6"/><path data-name="Linie 15" d="M23.5 29.6h9"/><path data-name="Linie 16" d="M23.5 29.6h9"/></g></g></svg><svg width="28.24" height="28.51" viewBox="-1 -1 28.24 28.51" id="ticket-sold-out" x="142.34" y="181.82" xmlns="http://www.w3.org/2000/svg"><g fill="#222"><path d="M0 23.74L23.74 0l2.5 2.5L2.5 26.24zm6.469-8.919V2.514h1.186a5.933 5.933 0 005.647 4.782 5.858 5.858 0 00.74-.048L20.777.514h-3.356l-.029.971a3.924 3.924 0 01-7.845 0L9.518.514H4.469v16.307zm14-4.101v13.794h-.876a5.882 5.882 0 00-9.311-3.607l-1.253 1.254a5.8 5.8 0 00-1.066 2.353H6.676l-2 2h5.15l.028-.972a3.931 3.931 0 013.922-3.813h.113a3.927 3.927 0 013.812 3.812l.028.972h4.74V8.72z"/><path d="M15.209 16.113h2.76v-2h-.76z"/></g></svg><svg data-name="Komponente 42 – 31" width="58" height="58" viewBox="-1 -1 58 58" id="ticket-unavailable" y="90" xmlns="http://www.w3.org/2000/svg"><g data-name="Gruppe 4632" fill="#efefef"><g data-name="Gruppe 4629"><g data-name="Gruppe 4627"><path data-name="Pfad 2493" d="M25.277 21.1a5.922 5.922 0 01-3.092-4.1H21v8.373z"/><path data-name="Pfad 2494" d="M30.687 34.73a5.926 5.926 0 013.436 4.269H35v-8.582z"/></g><g data-name="Gruppe 4628"><path data-name="Pfad 2495" d="M19 27.635V14.999h5.049l.028.972a3.92 3.92 0 002.916 3.671L42.557 4.078A28 28 0 004.078 42.557z"/><path data-name="Pfad 2496" d="M52.037 13.638L37 28.673v12.324h-4.74l-.029-.971a3.919 3.919 0 00-2.914-3.67L13.639 52.035a28 28 0 0038.4-38.4z"/></g></g><path data-name="Rechteck 3802" d="M2.67 47.515L47.805 2.38l6.084 6.085L8.755 53.6z"/></g></svg><svg width="20" height="24" viewBox="-1 -1 20 24" id="trash" x="104" y="211.95" xmlns="http://www.w3.org/2000/svg"><g data-name="Gruppe 4737" fill="none" stroke="#111" stroke-linejoin="round" stroke-width="2"><path data-name="Pfad 2698" d="M0 5h18"/><path data-name="Pfad 2699" d="M16 5v14a2 2 0 01-2 2H4a2 2 0 01-2-2V5m3 0V3a2 2 0 012-2h4a2 2 0 012 2v2"/><path data-name="Pfad 2700" d="M7 10v6"/><path data-name="Pfad 2701" d="M11 10v6"/></g></svg><svg width="19.32" height="22" viewBox="-1 -1 19.32 22" id="trash-merklist" x="157.68" y="211.95" xmlns="http://www.w3.org/2000/svg"><g data-name="Group 4741"><g data-name="Group 4739"><g data-name="Group 4738" transform="translate(1.103 .531)" fill="none" stroke="#111" stroke-linecap="round" stroke-linejoin="round" stroke-miterlimit="10" stroke-width="2"><path data-name="Path 2702" d="M.011 2.652L1.69 16.446c.113 1.123 2.692 2.022 5.866 2.022s5.752-.9 5.866-2.022l1.676-13.794"/><ellipse data-name="Ellipse 144" cx="7.5" cy="2.5" rx="7.5" ry="2.5" transform="translate(0 .469)"/></g></g><path data-name="Line 91" fill="none" stroke="#000" d="M8.693 8.506V15.5"/><path data-name="Line 92" fill="none" stroke="#000" d="M4.929 8.929l.627 6.456"/><path data-name="Line 93" fill="none" stroke="#000" d="M12.457 8.929l-.627 6.456"/></g></svg><svg width="30.47" height="25.14" viewBox="-1 -1 30.47 25.14" id="twitter" x="67.18" y="148" xmlns="http://www.w3.org/2000/svg"><path d="M28.466 2.739a11.677 11.677 0 01-3.354.919A5.876 5.876 0 0027.681.427a11.745 11.745 0 01-3.71 1.416 5.847 5.847 0 00-9.953 5.327 16.579 16.579 0 01-12.037-6.1 5.849 5.849 0 001.806 7.8 5.815 5.815 0 01-2.646-.732v.068a5.843 5.843 0 004.685 5.725 5.823 5.823 0 01-2.638.1 5.849 5.849 0 005.458 4.056 11.716 11.716 0 01-7.254 2.5 11.58 11.58 0 01-1.393-.081 16.525 16.525 0 008.955 2.629c10.742 0 16.618-8.9 16.618-16.618 0-.253-.006-.5-.017-.755a11.85 11.85 0 002.913-3.022zm0 0" data-name="Group 4771"/></svg><svg width="42" height="42" viewBox="-1 -1 42 42" id="twitter-circle" x="148" xmlns="http://www.w3.org/2000/svg"><g data-name="Group 250" transform="translate(-243 -4124)"><circle data-name="Ellipse 13" cx="20" cy="20" r="20" transform="translate(243 4124)"/><path d="M274.286 4137.754a9.259 9.259 0 01-2.659.729 4.659 4.659 0 002.041-2.562 9.313 9.313 0 01-2.942 1.123 4.636 4.636 0 00-7.892 4.224 13.146 13.146 0 01-9.545-4.84 4.638 4.638 0 001.432 6.184 4.611 4.611 0 01-2.1-.58v.056a4.633 4.633 0 003.715 4.54 4.617 4.617 0 01-2.091.081 4.638 4.638 0 004.323 3.219 9.29 9.29 0 01-5.752 1.982 9.183 9.183 0 01-1.1-.064 13.17 13.17 0 0020.275-11.1c0-.2 0-.4-.013-.6a9.4 9.4 0 002.31-2.4zm0 0" fill="#fff"/></g></svg><svg width="34" height="34" viewBox="-1 -1 34 34" id="twitter-circle-small" x="190" y="68" xmlns="http://www.w3.org/2000/svg"><circle data-name="Ellipse 13" cx="16" cy="16" r="16"/><path d="M25.025 11.003a7.407 7.407 0 01-2.127.583 3.727 3.727 0 001.63-2.05 7.45 7.45 0 01-2.353.9 3.709 3.709 0 00-6.313 3.379 10.517 10.517 0 01-7.637-3.872A3.71 3.71 0 009.37 14.89a3.689 3.689 0 01-1.678-.464v.046a3.707 3.707 0 002.972 3.632 3.694 3.694 0 01-1.673.065 3.71 3.71 0 003.462 2.573 7.432 7.432 0 01-4.6 1.585 7.346 7.346 0 01-.884-.051 10.536 10.536 0 0016.22-8.877c0-.16 0-.32-.01-.479a7.517 7.517 0 001.846-1.917zm0 0" fill="#fff"/></svg><svg width="34" height="34" viewBox="-1 -1 34 34" id="whatsapp-circle-small" x="190" y="102" xmlns="http://www.w3.org/2000/svg"><circle data-name="Ellipse 221" cx="16" cy="16" r="16"/><path data-name="Path 3001" d="M25 15.966a8.974 8.974 0 01-8.962 8.959 8.958 8.958 0 01-4.283-1.091L7.004 25.08l1.271-4.643a8.942 8.942 0 01-1.2-4.479 8.973 8.973 0 018.962-8.959 8.906 8.906 0 016.34 2.628A8.9 8.9 0 0125 15.966zm-10.512-2.09a.412.412 0 01.019.392 1.527 1.527 0 01-.224.374c-.112.131-.235.292-.336.392s-.229.233-.1.457a6.747 6.747 0 001.246 1.551 6.118 6.118 0 001.8 1.111c.224.112.355.093.485-.056s.56-.654.709-.878.3-.187.5-.112 1.306.616 1.53.728.373.168.429.261a1.87 1.87 0 01-.131 1.065 2.306 2.306 0 01-1.512 1.065 3.071 3.071 0 01-1.41-.089 12.9 12.9 0 01-1.277-.472 9.981 9.981 0 01-3.826-3.38 4.354 4.354 0 01-.914-2.316 2.51 2.51 0 01.784-1.868.823.823 0 01.6-.28c.149 0 .3 0 .429.008s.322-.052.5.384.643 1.551.699 1.663z" fill="#fff" fill-rule="evenodd"/></svg><svg width="34.18" height="23.12" viewBox="-1 -1 34.18 23.12" id="youtube" x="148" y="121" xmlns="http://www.w3.org/2000/svg"><path d="M12.767 14.454V6.018l8.7 4.233-8.694 4.2zm19.091-9.9a6.239 6.239 0 00-1.279-2.981A4.788 4.788 0 0027.354.301c-4.5-.3-11.258-.3-11.258-.3h-.014s-6.755 0-11.258.3a4.79 4.79 0 00-3.225 1.272A6.243 6.243 0 00.32 4.554a42.433 42.433 0 00-.322 4.86v2.278a42.433 42.433 0 00.322 4.86 6.243 6.243 0 001.279 2.981 5.7 5.7 0 003.55 1.285c2.574.231 10.941.3 10.941.3s6.762-.01 11.264-.313a4.788 4.788 0 003.225-1.272 6.239 6.239 0 001.279-2.981 42.529 42.529 0 00.321-4.86V9.416a42.529 42.529 0 00-.321-4.86z" data-name="Group 4776"/></svg><svg width="42" height="42" viewBox="-1 -1 42 42" id="youtube-circle" x="148" y="42" xmlns="http://www.w3.org/2000/svg"><g transform="translate(-327.001 -4124)"><circle cx="20" cy="20" r="20" transform="translate(327.001 4124)"/><path d="M344.522 4146.781v-6.294l6.485 3.157-6.484 3.135zm14.238-7.382a4.653 4.653 0 00-.954-2.223 3.571 3.571 0 00-2.4-.948c-3.358-.226-8.4-.226-8.4-.226h-.01s-5.038 0-8.4.226a3.572 3.572 0 00-2.4.948 4.656 4.656 0 00-.954 2.223 31.647 31.647 0 00-.24 3.624v1.7a31.647 31.647 0 00.24 3.624 4.656 4.656 0 00.954 2.223 4.249 4.249 0 002.646.957c1.92.172 8.16.225 8.16.225s5.043-.007 8.4-.234a3.571 3.571 0 002.4-.948 4.653 4.653 0 00.954-2.223 31.719 31.719 0 00.239-3.624v-1.7a31.719 31.719 0 00-.239-3.624z" fill="#fff"/></g></svg></svg>